# xmcd
#
# Track frame offsets:
#	150
#	12506
#	24150
#	28836
#	40081
#	44226
#	50349
#	60330
#	62896
#	76785
#	104434
#	110010
#	116689
#	124617
#	131196
#	135761
#	144144
#	154023
#	165105
#	185815
#	195816
#	214061
#	237205
#	250865
#	263137
#	277945
#
# Disc length: 3960 seconds
#
# Revision: 1
# Processed by: cddbd v1.5PL3 Copyright (c) Steve Scherf et al.
# Submitted via: EasyCDDAExtractor 6.5.0.1
#
DISCID=5d0f761a
DTITLE=Turtle Creek Chorale - One World
DYEAR=1900
DGENRE=
TTITLE0=Behold Man(One World US CD Version)
TTITLE1=Your Voices Raised(One World US CD Version)
TTITLE2=Opera Maxima Votre  Toasta From Carmen(One World US CD Version)
TTITLE3=Opera Maxima O Mio Babbino Caro From Gianni Schicchi(One World US CD V
TTITLE3=ersion)
TTITLE4=Opera Maxima Chi Del Gitano From II Trovatore(One World US CD Version)
TTITLE5=Opera Maxima  Belle Nuit From Les Contes D'Hoffmann(One World US CD Ve
TTITLE5=rsion)
TTITLE6=Opera Maxima Sous Le Dome Epais From Lakme(One World US CD Version)
TTITLE7=Opera Maxima Largo Al Factotum From II Barbiere Di Siviglia(One World 
TTITLE7=US CD Version)
TTITLE8=Opera Maxima Nessun Dorma From Turnadot(One World US CD Version)
TTITLE9=O Magnum Mysterium(One World US CD Version)
TTITLE10=Lambscapes A La Gregorian Chant(One World US CD Version)
TTITLE11=Lambscapes A La Handel(One World US CD Version)
TTITLE12=Lambscapes A La Schubert(One World US CD Version)
TTITLE13=Lambscapes A La Verdi(One World US CD Version)
TTITLE14=Lambscapes A La Orff(One World US CD Version)
TTITLE15=Lambscapes A La Sons Of Pioneers(One World US CD Version)
TTITLE16=Lambscapes A La Gospel(One World US CD Version)
TTITLE17=Credo(One World US CD Version)
TTITLE18=Exultate Justi(One World US CD Version)
TTITLE19=Prideful Mary(One World US CD Version)
TTITLE20=Loving Kindness(One World US CD Version)
TTITLE21=Send In The Clowns(One World US CD Version)
TTITLE22=Goin' To The Holy City(One World US CD Version)
TTITLE23=For The Fallen(One World US CD Version)
TTITLE24=America The Beautiful(One World US CD Version)
TTITLE25=One World(One World US CD Version)
EXTD=
EXTT0=
EXTT1=
EXTT2=
EXTT3=
EXTT4=
EXTT5=
EXTT6=
EXTT7=
EXTT8=
EXTT9=
EXTT10=
EXTT11=
EXTT12=
EXTT13=
EXTT14=
EXTT15=
EXTT16=
EXTT17=
EXTT18=
EXTT19=
EXTT20=
EXTT21=
EXTT22=
EXTT23=
EXTT24=
EXTT25=
PLAYORDER=
